# xmcd
#
# Track frame offsets:
#  150
#  14223
#  27648
#  52924
#  69058
#  85141
#  101960
#  133624
#  145596
#  167593
#  185671
#  201660
#  216558
#  230425
#  248228
#  268896
#  281181
#  300486
#  319811
#  343404
#
# Disc length: 4830 seconds
#
# Revision: 0
# Processed by: cddbd v1.5.1PL0 Copyright (c) Steve Scherf et al.
# Submitted via: Collectorz.com Music Collector 6.9
#
DISCID=4012dc14
DTITLE=Various Artist - Honky Tonk 9
DYEAR=1900
DGENRE=
TTITLE0=Mark Stewart - Ragged Suitcase
TTITLE1=Mark Stewart - Girl From Louisian'
TTITLE2=Mark Stewart - Small Photograph
TTITLE3=Mark Stewart - Death of An Artist
TTITLE4=Mark Stewart - Lorraine
TTITLE5=Mark Stewart - Boss Is Watchin'
TTITLE6=Mark Stewart - When Katey Sings
TTITLE7=Stacey Earle - Promise You Anything
TTITLE8=Stacey Earle - No New Shoes
TTITLE9=Stacey Earle - Good-By
TTITLE10=Stacey Earle - Wonderful Life
TTITLE11=Stacey Earle - Must Be Love
TTITLE12=Stacey Earle - Dancin' with Them That Brung Me
TTITLE13=Stacey Earle - Why
TTITLE14=Stacey Earle - How I Ran
TTITLE15=Bill Lyerly and Steve Earle - Hangmen
TTITLE16=Bill Lyerly - There Must Be An Angel
TTITLE17=Nanci Griffith and John Prine - The Speed of the Sound of Loneliness
TTITLE18=Nanci Griffith - Boots of Spanish Leather
TTITLE19=Nanci Griffith and Adam Duritz of the Counting Crows - Going Back To Georgia
EXTD=
EXTT0=
EXTT1=
EXTT2=
EXTT3=
EXTT4=
EXTT5=
EXTT6=
EXTT7=
EXTT8=
EXTT9=
EXTT10=
EXTT11=
EXTT12=
EXTT13=
EXTT14=
EXTT15=
EXTT16=
EXTT17=
EXTT18=
EXTT19=
PLAYORDER=
